<?xml version="1.0" encoding="utf-8"?>
<!-- Generator: Adobe Illustrator 22.0.1, SVG Export Plug-In . SVG Version: 6.00 Build 0)  -->
<svg version="1.1" id="Layer_1" xmlns="http://www.w3.org/2000/svg" xmlns:xlink="http://www.w3.org/1999/xlink" x="0px" y="0px"
	 viewBox="0 0 35.5 31.6" style="enable-background:new 0 0 35.5 31.6;" xml:space="preserve">
<style type="text/css">
	.st0{fill:#BCBEC0;}
	.st1{fill:#FFFFFF;}
</style>
<g>
	<path class="st0" d="M31.4,2.1H22l1.8,1.8L23,4.6h7c1.2,0,2.1,0.9,2.1,1.9v14.8c0,1.1-1,1.9-2.1,1.9H17.3l-5.6,4.5
		c-0.9,0.7-2.1,0.8-2.7,0.2l-5.2-5.2c-0.2-0.2-0.3-0.4-0.3-0.6c-0.1-0.2-0.1-0.4-0.1-0.7V6.5c0-1.1,1-1.9,2.1-1.9h0.3L5.1,3.9
		l1.8-1.8H4.4c-2.2,0-4.1,1.7-4.1,3.8v16.3c0,0.4,0.1,0.8,0.2,1.2c0.1,0.5,0.4,1,0.8,1.4L7,30.6c0.6,0.6,1.5,1,2.4,1
		c1,0,2-0.4,2.8-1L18,26h13.4c2.2,0,4.1-1.7,4.1-3.8V5.9C35.4,3.8,33.6,2.1,31.4,2.1z"/>
	<path class="st1" d="M7.4,5c-0.6,0.9-1,1.8-1.2,2.9H4.6v3.5h1.6c0.2,1,0.6,1.9,1.2,2.8l-1.1,1.1l2.5,2.5l1.1-1.1
		c0.8,0.5,1.7,0.9,2.7,1.1v1.4h3.5v-1.3c1-0.2,2-0.6,2.9-1.2l1.1,1.1l2.5-2.5l-1-1c0.6-0.8,1-1.8,1.2-2.8h1.5V7.9h-1.5
		c-0.2-1.1-0.6-2-1.2-2.9l1.1-1.1l-2.5-2.5L19,2.5c-0.9-0.6-1.9-1-2.9-1.2V0.1h-3.5v1.4c-1,0.2-1.9,0.6-2.8,1.2L8.7,1.4L6.2,3.9
		L7.4,5z M14.4,5.3c2.4,0,4.4,1.9,4.4,4.2s-2,4.2-4.4,4.2S10,11.8,10,9.5C10.1,7.2,12,5.3,14.4,5.3z"/>
	<path class="st1" d="M25.9,12.8v0.7c-0.5,0.1-0.9,0.3-1.3,0.6L24,13.4l-1.2,1.2l0.6,0.6c-0.3,0.4-0.5,0.9-0.6,1.4H22v1.7h0.8
		c0.1,0.5,0.3,0.9,0.6,1.3l-0.5,0.5l1.2,1.2l0.5-0.5c0.4,0.3,0.8,0.4,1.3,0.5V22h1.7v-0.6c0.5-0.1,1-0.3,1.4-0.6l0.5,0.5l1.2-1.2
		l-0.5-0.5c0.3-0.4,0.5-0.9,0.6-1.4h0.7v-1.7h-0.7c-0.1-0.5-0.3-1-0.6-1.4l0.5-0.5l-1.2-1.2L28.9,14c-0.4-0.3-0.9-0.5-1.4-0.6v-0.6
		C27.5,12.8,25.9,12.8,25.9,12.8z M28.8,17.4c0,1.1-0.9,2-2.1,2s-2.1-0.9-2.1-2s0.9-2,2.1-2C27.9,15.3,28.8,16.2,28.8,17.4z"/>
</g>
</svg>
