<?xml version="1.0" encoding="utf-8"?>
<!-- Generator: Adobe Illustrator 22.0.1, SVG Export Plug-In . SVG Version: 6.00 Build 0)  -->
<svg version="1.1" id="Layer_1" xmlns="http://www.w3.org/2000/svg" xmlns:xlink="http://www.w3.org/1999/xlink" x="0px" y="0px"
	 viewBox="0 0 30.5 27.9" style="enable-background:new 0 0 30.5 27.9;" xml:space="preserve">
<style type="text/css">
	.st0{fill:#FFFFFF;}
	.st1{fill:#BCBEC0;}
</style>
<g>
	<path class="st0" d="M28.5,0.4H6.2c-0.9,0-1.5,0.7-1.5,1.5v23.7c0,2.2-3,1.6-3,1.7H29c0,0,1.1-0.1,1.1-1.2c0-0.5,0,0.2,0,0.2V1.9
		C30.1,1.1,29.4,0.4,28.5,0.4z M19.7,3.4h6.2c0.7,0,1.3,0.6,1.3,1.3s-0.6,1.3-1.3,1.3h-6.2c-0.7,0-1.3-0.6-1.3-1.3
		C18.5,4,18.9,3.4,19.7,3.4z M6.1,5.1c0-0.9,0.7-1.6,1.6-1.6h5.1c0.9,0,1.6,0.7,1.6,1.6v4.4c0,0.9-0.7,1.6-1.6,1.6H7.8
		c-0.9,0-1.6-0.7-1.6-1.6L6.1,5.1z M15.2,8.4c0-0.7,0.7-1.3,1.6-1.3h9c0.9,0,1.6,0.6,1.6,1.3V10c0,0.7-0.7,1.3-1.6,1.3h-9
		c-0.9,0-1.6-0.6-1.6-1.3C15.2,10,15.2,8.4,15.2,8.4z M26.7,25.9H6.8c-0.4,0-0.7-0.3-0.7-0.7c0-0.4,0.3-0.7,0.7-0.7h19.9
		c0.4,0,0.7,0.3,0.7,0.7C27.3,25.6,27.1,25.9,26.7,25.9z M26.7,23H6.8c-0.4,0-0.7-0.3-0.7-0.7c0-0.4,0.3-0.7,0.7-0.7h19.9
		c0.4,0,0.7,0.3,0.7,0.7C27.3,22.7,27.1,23,26.7,23z M26.7,20.1H6.8c-0.4,0-0.7-0.3-0.7-0.7s0.3-0.7,0.7-0.7h19.9
		c0.4,0,0.7,0.3,0.7,0.7C27.3,19.8,27.1,20.1,26.7,20.1z M26.7,17H6.8c-0.4,0-0.7-0.3-0.7-0.7c0-0.4,0.3-0.7,0.7-0.7h19.9
		c0.4,0,0.7,0.3,0.7,0.7C27.3,16.7,27.1,17,26.7,17z M26.7,14.1H6.8c-0.4,0-0.7-0.3-0.7-0.7c0-0.4,0.3-0.7,0.7-0.7h19.9
		c0.4,0,0.7,0.3,0.7,0.7C27.3,13.8,27.1,14.1,26.7,14.1z"/>
	<path class="st1" d="M0.4,26c0,1.7,1.4,1.5,3.2,1.5C4.9,27.4,4.8,26,4.8,26V7.3H0.5C0.4,7.3,0.4,21.9,0.4,26z"/>
</g>
</svg>
