<?xml version="1.0" encoding="utf-8"?>
<!-- Generator: Adobe Illustrator 22.0.1, SVG Export Plug-In . SVG Version: 6.00 Build 0)  -->
<svg version="1.1" id="Layer_1" xmlns="http://www.w3.org/2000/svg" xmlns:xlink="http://www.w3.org/1999/xlink" x="0px" y="0px"
	 viewBox="0 0 37.5 27.3" style="enable-background:new 0 0 37.5 27.3;" xml:space="preserve">
<style type="text/css">
	.st0{fill:#FFFFFF;}
	.st1{fill:#BCBEC0;}
</style>
<g>
	<path class="st0" d="M28.3,17c-1.9,0-3.6,0.6-4.9,1.6h-2.5h-0.1H10.1L1,26.9h34.7c0.3-0.8,0.4-1.6,0.4-2.5
		C36.2,20.3,32.6,17,28.3,17z M20.1,21h4.1l0.6-0.5c1-0.7,2.2-1.1,3.5-1.1c2,0,3.8,1,4.8,2.5h-13V21z M13.5,26.1h-2.8v-2.6h2.8V26.1
		z M13.5,22.3h-2.8v-2.6h2.8V22.3z M17.7,26.1h-2.8v-2.6h2.8V26.1z M17.7,22.3h-2.8v-2.6h2.8V22.3z M33.8,24.5H20.1v-0.8h13.6
		C33.8,23.9,33.8,24.2,33.8,24.5C33.8,24.4,33.8,24.5,33.8,24.5z"/>
	<path class="st1" d="M13.4,5.5c0.4,0,0.7-0.2,0.9-0.4c0.2,0.1,0.5,0.2,0.7,0.2c0.4,0,0.7-0.1,1-0.3c0.1,0,0.2,0,0.3,0
		c0.4,0,0.8-0.2,1-0.6c0.4-0.4,0.2-2,1-2.3c0.9-0.4,2-2.7,1.4-1.9s-2,0.7-2,0.7c-1.5,0.1-2.1,0.9-2.4,1.7c-0.1,0-0.3-0.1-0.4-0.1
		c-0.6,0-1.2,0.4-1.4,0.9c-0.1,0-0.2,0-0.2,0c-0.7,0-1.2,0.5-1.2,1.1C12.2,5,12.7,5.5,13.4,5.5z"/>
	<path class="st1" d="M26.3,5.5c0.4,0,0.7-0.2,0.9-0.4c0.2,0.1,0.5,0.2,0.7,0.2c0.4,0,0.7-0.1,1-0.3c0.1,0,0.3,0,0.4,0
		c0.4,0,0.8-0.2,1-0.6c0.4-0.4,0.2-2,1-2.3c0.9-0.4,2-2.7,1.4-1.9c-0.6,0.8-2,0.7-2,0.7c-1.5,0.1-2.1,0.9-2.4,1.7
		c-0.1,0-0.3-0.1-0.4-0.1c-0.6,0-1.2,0.4-1.4,0.9c-0.1,0-0.2,0-0.2,0c-0.7,0-1.2,0.5-1.2,1.1C25.2,5,25.7,5.5,26.3,5.5z"/>
	<polygon class="st0" points="18.6,6.1 11.3,6.1 11,9.1 18.9,9.1 	"/>
	<polygon class="st0" points="19,10 10.9,10 10,18 19.9,18 	"/>
	<polygon class="st0" points="31.6,5.9 24.4,5.9 24,9.3 32,9.3 	"/>
	<path class="st0" d="M28.3,16.5c1.7,0,3.3,0.5,4.6,1.3H33l-0.9-7.7h-8.2L23,17.8h0.7C25.1,17,26.6,16.5,28.3,16.5z"/>
</g>
</svg>
